<?xml version="1.0" encoding="utf-8"?>
<!-- Generator: Adobe Illustrator 16.0.0, SVG Export Plug-In . SVG Version: 6.00 Build 0)  -->
<!DOCTYPE svg PUBLIC "-//W3C//DTD SVG 1.1//EN" "http://www.w3.org/Graphics/SVG/1.1/DTD/svg11.dtd">
<svg version="1.1" id="Layer_1" xmlns="http://www.w3.org/2000/svg" xmlns:xlink="http://www.w3.org/1999/xlink" x="0px" y="0px"
	 width="70px" height="70px" viewBox="221 221 70 70" enable-background="new 221 221 70 70" xml:space="preserve">
<g>
	<g>
		<g>
			<path fill="#F9EACD" d="M283.091,253.083c-2.191-10.234-10.035-18.371-20.105-20.987c-3.778,0-6.842,3.063-6.842,6.841
				c0,2.413,1.249,4.533,3.135,5.751c-1.026,0.359-2.129,0.554-3.278,0.554c-5.486,0-9.934-4.448-9.934-9.934
				c0-0.818,0.099-1.613,0.286-2.374c-8.774,3.259-15.449,10.835-17.443,20.147c-0.405,1.88-0.618,3.832-0.618,5.833
				s0.212,3.953,0.618,5.834c2.677,12.502,13.789,21.875,27.091,21.875s24.414-9.373,27.091-21.875
				c0.405-1.881,0.617-3.833,0.617-5.834S283.494,254.964,283.091,253.083z"/>
			<path fill="#F9EACD" d="M228.292,258.916c0-2.001,0.212-3.953,0.618-5.833h-0.618c-3.208,0-5.833,2.625-5.833,5.833
				c0,3.209,2.625,5.834,5.833,5.834h0.618C228.504,262.869,228.292,260.917,228.292,258.916z"/>
			<path fill="#F9EACD" d="M283.093,253.083c0.403,1.881,0.615,3.833,0.615,5.833s-0.212,3.953-0.617,5.834h0.617
				c3.209,0,5.833-2.625,5.833-5.834c0-3.208-2.624-5.833-5.833-5.833L283.093,253.083z"/>
		</g>
		<path fill="#7DBDFF" d="M256,245.243c-5.486,0-9.934-4.448-9.934-9.934c0-5.487,4.448-9.935,9.934-9.935
			c4.547,0,8.38,3.055,9.56,7.223c-0.795-0.323-1.664-0.501-2.574-0.501c-3.778,0-6.842,3.063-6.842,6.841
			c0,2.413,1.249,4.533,3.135,5.751C258.252,245.047,257.148,245.243,256,245.243z"/>
	</g>
	<g>
		<path fill="#000003" d="M237.58,247.01c-0.707-0.387-1.593-0.128-1.98,0.578l-0.029,0.053c-0.387,0.707-0.128,1.593,0.578,1.98
			c0.223,0.122,0.463,0.18,0.7,0.18c0.515,0,1.015-0.274,1.28-0.758l0.029-0.053C238.545,248.284,238.286,247.397,237.58,247.01z"/>
		<path fill="#000003" d="M291,258.916c0-3.838-2.981-6.991-6.75-7.269c-2.293-8.926-8.723-16.346-17.399-19.814
			c-1.498-4.68-5.905-7.917-10.85-7.917c-5.072,0-9.378,3.332-10.85,7.921c-5.225,2.093-9.7,5.624-12.974,10.249
			c-2.068,2.922-3.559,6.153-4.432,9.561c-3.766,0.282-6.745,3.433-6.745,7.269c0,3.839,2.982,6.991,6.75,7.27
			c3.238,12.577,14.676,21.897,28.25,21.897c13.574,0,25.012-9.32,28.25-21.897C288.019,265.907,291,262.755,291,258.916z
			 M256,226.833c2.889,0,5.53,1.483,7.072,3.805c-0.029,0-0.058,0-0.087,0c-0.02,0-0.037,0.001-0.057,0.001
			c-0.007,0-0.015,0-0.021,0c-4.541,0.042-8.222,3.748-8.222,8.298c0,1.771,0.556,3.454,1.556,4.843
			c-0.081,0.002-0.161,0.003-0.241,0.003c-4.673,0-8.476-3.802-8.476-8.476C247.524,230.635,251.327,226.833,256,226.833z
			 M227.139,263.137c-1.854-0.507-3.222-2.207-3.222-4.221c0-2.013,1.366-3.712,3.219-4.22c-0.125,0.868-0.212,1.744-0.26,2.627
			c0,0.013-0.001,0.024-0.001,0.037c-0.009,0.16-0.016,0.321-0.022,0.482c-0.002,0.062-0.003,0.122-0.005,0.184
			c-0.003,0.115-0.007,0.231-0.009,0.347c-0.003,0.182-0.005,0.362-0.005,0.543c0,0.221,0.003,0.441,0.008,0.662
			c0.002,0.069,0.003,0.139,0.006,0.207c0.004,0.161,0.011,0.321,0.018,0.482c0.003,0.067,0.006,0.136,0.009,0.204
			c0.011,0.2,0.023,0.4,0.038,0.601c0.007,0.095,0.015,0.188,0.023,0.281c0.01,0.119,0.021,0.238,0.032,0.356
			c0.01,0.104,0.02,0.209,0.031,0.313c0.013,0.121,0.027,0.243,0.042,0.365c0.019,0.159,0.039,0.318,0.061,0.477
			C227.114,262.956,227.125,263.047,227.139,263.137z M256,285.166c-12.643,0-23.227-8.984-25.702-20.904
			c-0.022-0.108-0.043-0.217-0.064-0.325c-0.02-0.104-0.041-0.208-0.06-0.312c-0.027-0.147-0.051-0.296-0.076-0.443
			c-0.011-0.068-0.023-0.136-0.034-0.204c-0.029-0.188-0.055-0.375-0.081-0.563c-0.004-0.032-0.009-0.063-0.013-0.096
			c-0.029-0.222-0.055-0.443-0.078-0.665c0-0.001,0-0.003,0-0.004c-0.094-0.907-0.142-1.821-0.142-2.733
			c0-0.206,0.003-0.413,0.008-0.618c0.002-0.068,0.004-0.136,0.006-0.203c0.004-0.139,0.01-0.277,0.017-0.416
			c0.003-0.081,0.007-0.161,0.012-0.242c0.007-0.122,0.016-0.245,0.024-0.368c0.015-0.212,0.032-0.423,0.052-0.634
			c0.002-0.024,0.004-0.048,0.006-0.072c0.896-9.077,6.518-17.132,14.733-21.1c0,0.016-0.001,0.031-0.001,0.046
			c0,1.044,0.144,2.055,0.408,3.016c-2.618,1.394-4.917,3.251-6.843,5.534c-0.52,0.616-0.441,1.536,0.174,2.055
			c0.273,0.231,0.607,0.344,0.939,0.344c0.415,0,0.827-0.176,1.115-0.518c1.628-1.929,3.559-3.509,5.75-4.713
			c1.976,3.39,5.649,5.675,9.848,5.675c1.288,0,2.552-0.214,3.759-0.636c0.525-0.184,0.901-0.651,0.967-1.204
			c0.066-0.553-0.188-1.096-0.657-1.397c-1.545-0.998-2.467-2.69-2.467-4.526c0-2.908,2.317-5.283,5.203-5.378
			c9.688,2.592,16.892,10.424,18.888,19.971c0.033,0.158,0.065,0.316,0.095,0.475c0.016,0.083,0.03,0.166,0.046,0.249
			c0.022,0.13,0.046,0.26,0.067,0.39c0.013,0.078,0.024,0.156,0.037,0.234c0.022,0.146,0.044,0.293,0.063,0.439
			c0.009,0.062,0.018,0.123,0.025,0.184c0.056,0.426,0.101,0.854,0.136,1.283c0.004,0.049,0.007,0.099,0.011,0.147
			c0.013,0.165,0.023,0.33,0.033,0.495c0.003,0.064,0.007,0.129,0.01,0.193c0.008,0.157,0.014,0.314,0.019,0.472
			c0.002,0.061,0.005,0.122,0.006,0.183c0.006,0.214,0.009,0.428,0.009,0.641c0,0.23-0.003,0.461-0.009,0.691
			c-0.001,0.035-0.003,0.07-0.004,0.106c-0.007,0.195-0.014,0.391-0.023,0.586c-0.002,0.035-0.005,0.069-0.007,0.104
			c-0.011,0.195-0.023,0.391-0.039,0.585c-0.003,0.04-0.007,0.079-0.01,0.118c-0.016,0.188-0.033,0.377-0.053,0.564
			c-0.005,0.053-0.012,0.104-0.018,0.157c-0.02,0.172-0.039,0.344-0.062,0.516c-0.01,0.072-0.021,0.144-0.03,0.215
			c-0.021,0.149-0.042,0.298-0.065,0.445c-0.015,0.097-0.031,0.192-0.048,0.289c-0.02,0.119-0.04,0.239-0.062,0.358
			c-0.022,0.122-0.046,0.242-0.07,0.363c-0.018,0.091-0.035,0.182-0.054,0.271C279.211,276.194,268.634,285.166,256,285.166z
			 M284.861,263.137c0.016-0.11,0.03-0.221,0.045-0.331c0.016-0.117,0.031-0.234,0.046-0.352c0.018-0.146,0.034-0.294,0.05-0.441
			c0.011-0.097,0.021-0.193,0.029-0.29c0.012-0.128,0.023-0.255,0.034-0.382c0.007-0.088,0.015-0.176,0.021-0.264
			c0.015-0.202,0.027-0.405,0.038-0.608c0.004-0.064,0.006-0.131,0.01-0.196c0.007-0.163,0.014-0.325,0.019-0.489
			c0.002-0.067,0.003-0.136,0.005-0.204c0.005-0.221,0.009-0.441,0.009-0.663c0-0.192-0.002-0.385-0.006-0.577
			c-0.002-0.069-0.004-0.14-0.006-0.209c-0.003-0.121-0.007-0.242-0.012-0.363c-0.003-0.085-0.008-0.171-0.012-0.257
			c-0.005-0.104-0.01-0.208-0.017-0.312c-0.005-0.093-0.011-0.186-0.018-0.279c-0.006-0.096-0.014-0.19-0.021-0.286
			c-0.008-0.098-0.016-0.194-0.024-0.291c-0.008-0.093-0.018-0.187-0.026-0.28c-0.009-0.096-0.019-0.192-0.028-0.289
			c-0.012-0.108-0.025-0.216-0.038-0.325c-0.015-0.12-0.029-0.24-0.045-0.36c-0.017-0.131-0.034-0.262-0.054-0.393
			c1.855,0.507,3.222,2.207,3.222,4.221S286.716,262.63,284.861,263.137z"/>
		<path fill="#000003" d="M250.812,260.604c-0.682-2.546-2.999-4.324-5.634-4.324s-4.952,1.778-5.635,4.324
			c-0.208,0.778,0.253,1.577,1.031,1.786c0.778,0.208,1.578-0.253,1.786-1.031c0.341-1.272,1.5-2.162,2.817-2.162
			c1.318,0,2.476,0.89,2.817,2.162c0.174,0.651,0.764,1.081,1.408,1.081c0.125,0,0.252-0.016,0.378-0.05
			C250.559,262.182,251.021,261.383,250.812,260.604z"/>
		<path fill="#000003" d="M266.823,256.28c-2.636,0-4.953,1.778-5.635,4.324c-0.209,0.778,0.253,1.577,1.031,1.786
			c0.777,0.209,1.577-0.253,1.786-1.031c0.341-1.272,1.499-2.162,2.816-2.162c1.318,0,2.477,0.89,2.817,2.162
			c0.175,0.651,0.764,1.081,1.408,1.081c0.124,0,0.252-0.016,0.378-0.05c0.778-0.209,1.24-1.009,1.031-1.786
			C271.774,258.059,269.458,256.28,266.823,256.28z"/>
		<path fill="#000003" d="M260.604,270.837c-0.777-0.209-1.578,0.253-1.786,1.031c-0.341,1.272-1.5,2.161-2.817,2.161
			c-1.318,0-2.476-0.889-2.817-2.161c-0.208-0.778-1.008-1.24-1.786-1.031c-0.778,0.208-1.24,1.008-1.031,1.786
			c0.682,2.546,2.999,4.323,5.635,4.323c2.635,0,4.953-1.777,5.634-4.323C261.843,271.845,261.382,271.045,260.604,270.837z"/>
	</g>
</g>
</svg>
