<?xml version="1.0" encoding="utf-8"?>
<!-- Generator: Adobe Illustrator 16.0.0, SVG Export Plug-In . SVG Version: 6.00 Build 0)  -->
<!DOCTYPE svg PUBLIC "-//W3C//DTD SVG 1.1//EN" "http://www.w3.org/Graphics/SVG/1.1/DTD/svg11.dtd">
<svg version="1.1" id="Layer_1" xmlns="http://www.w3.org/2000/svg" xmlns:xlink="http://www.w3.org/1999/xlink" x="0px" y="0px"
	 width="70px" height="70px" viewBox="221 221 70 70" enable-background="new 221 221 70 70" xml:space="preserve">
<g>
	<g>
		<g>
			<path fill="#FC88AF" d="M255.046,229.93c-1.235-2.201-4.045-4.575-10.4-4.555c-3.441,0.011-3.157,2.964-2.666,3.965
				c0.784,1.597,2.266,2.454,2.266,4.051c0,0.165-0.016,0.322-0.045,0.474c-0.253,1.309-1.519,2.146-2.221,3.577
				c-0.491,1.001-0.775,3.955,2.666,3.965c6.356,0.019,9.166-2.354,10.401-4.555c-1.52-0.417-2.636-1.809-2.636-3.461
				C252.411,231.739,253.527,230.348,255.046,229.93z"/>
			<path fill="#FC88AF" d="M255.046,229.93c-1.52,0.418-2.635,1.809-2.635,3.46c0,1.652,1.116,3.043,2.635,3.461
				c0.304,0.083,0.624,0.128,0.954,0.128s0.65-0.045,0.953-0.128c1.52-0.417,2.636-1.809,2.636-3.46
				c0-1.652-1.116-3.043-2.636-3.461c-0.303-0.083-0.623-0.128-0.953-0.128S255.35,229.846,255.046,229.93z"/>
			<path fill="#FC88AF" d="M256.954,229.93c1.519,0.418,2.635,1.809,2.635,3.46c0,1.652-1.116,3.043-2.635,3.46
				c1.234,2.201,4.045,4.574,10.4,4.555c3.44-0.01,3.156-2.964,2.665-3.965c-0.707-1.442-1.983-2.28-2.226-3.604
				c-0.025-0.143-0.04-0.291-0.04-0.446c0-1.597,1.482-2.454,2.266-4.051c0.491-1,0.775-3.954-2.665-3.965
				C260.999,225.355,258.188,227.729,256.954,229.93z"/>
		</g>
		<g>
			<path fill="#F9EACD" d="M267.354,241.407c-6.355,0.019-9.166-2.354-10.4-4.555c-0.304,0.083-0.624,0.128-0.954,0.128
				c-0.33,0-0.65-0.045-0.954-0.128c-1.235,2.201-4.044,4.574-10.4,4.555c-3.441-0.011-3.157-2.964-2.666-3.965
				c0.702-1.431,1.967-2.269,2.221-3.577c-0.245,0.121-0.915,0.427-1.156,0.555c-7.122,3.773-12.401,10.562-14.136,18.665
				c-0.405,1.881-0.618,3.833-0.618,5.833s0.213,3.953,0.618,5.833c2.677,12.503,13.789,21.875,27.091,21.875
				s24.414-9.372,27.091-21.875c0.404-1.88,0.617-3.832,0.617-5.833s-0.214-3.953-0.617-5.833
				c-1.828-8.538-7.591-15.615-15.298-19.246c0.242,1.324,1.519,2.163,2.227,3.604C270.511,238.442,270.795,241.396,267.354,241.407
				z"/>
			<path fill="#F9EACD" d="M228.292,258.917c0-2.001,0.212-3.953,0.618-5.833h-0.618c-3.208,0-5.833,2.625-5.833,5.833
				c0,3.208,2.625,5.833,5.833,5.833h0.618C228.504,262.87,228.292,260.918,228.292,258.917z"/>
			<path fill="#F9EACD" d="M283.093,253.083c0.403,1.881,0.616,3.833,0.616,5.834s-0.213,3.953-0.617,5.833h0.617
				c3.208,0,5.833-2.625,5.833-5.833c0-3.209-2.625-5.833-5.833-5.833L283.093,253.083z"/>
		</g>
	</g>
	<g>
		<path fill="#000003" d="M237.592,247.018c-0.702-0.394-1.591-0.144-1.985,0.558l-0.034,0.062c-0.39,0.706-0.133,1.592,0.572,1.981
			c0.224,0.124,0.465,0.182,0.704,0.182c0.514,0,1.012-0.272,1.278-0.754l0.024-0.043
			C238.545,248.3,238.295,247.412,237.592,247.018z"/>
		<path fill="#000003" d="M291,258.917c0-3.838-2.981-6.991-6.748-7.27c-0.775-3.023-2.036-5.912-3.752-8.561
			c-2.79-4.31-6.645-7.794-11.191-10.128c0.131-0.311,0.391-0.648,0.763-1.112c0.415-0.52,0.887-1.107,1.258-1.863
			c0.527-1.074,0.705-2.856-0.148-4.231c-0.518-0.833-1.601-1.828-3.821-1.835c-0.028,0-0.055,0-0.082,0
			c-6.286,0-9.449,2.243-11.039,4.433c-0.079-0.004-0.158-0.006-0.238-0.006c-0.08,0-0.159,0.002-0.239,0.006
			c-1.59-2.191-4.753-4.433-11.039-4.433c-0.027,0-0.054,0-0.082,0c-2.222,0.007-3.305,1.002-3.823,1.835
			c-0.854,1.375-0.674,3.158-0.147,4.231c0.371,0.756,0.842,1.344,1.257,1.863c0.375,0.468,0.635,0.807,0.765,1.119
			c-0.136,0.065-0.247,0.12-0.332,0.165c-7.377,3.909-12.601,10.669-14.613,18.517c-3.768,0.279-6.749,3.432-6.749,7.27
			c0,3.838,2.982,6.991,6.75,7.27c3.238,12.576,14.676,21.896,28.25,21.896c13.573,0,25.012-9.32,28.25-21.896
			C288.019,265.908,291,262.755,291,258.917z M267.277,226.833c0.024,0,0.049,0,0.072,0c0.489,0.002,1.121,0.082,1.354,0.457
			c0.252,0.406,0.138,1.142,0.008,1.407c-0.23,0.469-0.563,0.885-0.916,1.325c-0.703,0.877-1.499,1.872-1.499,3.368
			c0,0.198,0.015,0.387,0.041,0.568c0.007,0.089,0.023,0.177,0.046,0.263c0.226,1.053,0.849,1.833,1.412,2.537
			c0.353,0.44,0.686,0.857,0.916,1.325c0.13,0.264,0.244,1-0.008,1.407c-0.233,0.375-0.864,0.455-1.354,0.457
			c-0.023,0-0.047,0-0.07,0c-3.725,0-6.504-0.893-8.15-2.6c1.167-0.926,1.918-2.354,1.918-3.957c0-1.602-0.751-3.031-1.918-3.957
			C260.775,227.727,263.553,226.833,267.277,226.833z M253.87,233.391c0-1.174,0.956-2.13,2.13-2.13c1.175,0,2.13,0.956,2.13,2.13
			c0,1.175-0.956,2.131-2.13,2.131C254.826,235.521,253.87,234.565,253.87,233.391z M243.297,227.291
			c0.233-0.375,0.865-0.456,1.354-0.458c3.757-0.015,6.563,0.881,8.221,2.601c-1.167,0.925-1.918,2.354-1.918,3.956
			s0.751,3.031,1.918,3.957c-1.658,1.717-4.462,2.61-8.221,2.601c-0.489-0.001-1.121-0.082-1.354-0.457
			c-0.252-0.406-0.137-1.143-0.007-1.407c0.23-0.469,0.563-0.885,0.916-1.325c0.703-0.877,1.499-1.872,1.499-3.368
			s-0.796-2.491-1.499-3.368c-0.353-0.441-0.686-0.856-0.917-1.325C243.16,228.433,243.044,227.697,243.297,227.291z
			 M227.139,263.138c-1.855-0.508-3.222-2.208-3.222-4.221c0-2.014,1.367-3.714,3.222-4.221c-0.001,0.004-0.001,0.007-0.002,0.012
			c-0.024,0.166-0.046,0.332-0.068,0.498c-0.001,0.008-0.002,0.016-0.003,0.024c-0.021,0.167-0.041,0.334-0.059,0.502
			c0,0.007-0.002,0.015-0.002,0.022c-0.018,0.167-0.034,0.333-0.05,0.5c0,0.009-0.002,0.018-0.002,0.026
			c-0.015,0.163-0.028,0.326-0.04,0.488c-0.001,0.014-0.002,0.028-0.003,0.042c-0.011,0.155-0.021,0.313-0.03,0.469
			c-0.001,0.021-0.002,0.04-0.003,0.061c-0.008,0.149-0.015,0.299-0.021,0.449c-0.001,0.026-0.002,0.053-0.003,0.079
			c-0.005,0.143-0.009,0.286-0.011,0.43c-0.001,0.032-0.002,0.064-0.003,0.097c-0.003,0.174-0.004,0.348-0.004,0.522
			c0,0.221,0.003,0.44,0.008,0.662c0.001,0.068,0.004,0.139,0.005,0.208c0.005,0.16,0.011,0.32,0.019,0.479
			c0.003,0.068,0.006,0.138,0.009,0.206c0.01,0.2,0.023,0.399,0.038,0.6c0.007,0.095,0.015,0.189,0.023,0.283
			c0.009,0.118,0.02,0.236,0.031,0.354c0.01,0.104,0.02,0.209,0.031,0.313c0.014,0.127,0.029,0.253,0.044,0.379
			c0.018,0.148,0.037,0.297,0.057,0.445C227.112,262.944,227.125,263.041,227.139,263.138z M256,285.167
			c-12.647,0-23.234-8.991-25.705-20.917c-0.019-0.091-0.036-0.181-0.054-0.272c-0.023-0.119-0.047-0.238-0.069-0.358
			c-0.025-0.138-0.048-0.276-0.07-0.414c-0.013-0.077-0.026-0.152-0.038-0.229c-0.029-0.186-0.055-0.371-0.08-0.557
			c-0.004-0.032-0.009-0.065-0.014-0.1c-0.146-1.127-0.22-2.266-0.22-3.402c0-0.273,0.006-0.546,0.014-0.817
			c0.003-0.091,0.007-0.182,0.01-0.271c0.008-0.184,0.018-0.367,0.029-0.55c0.006-0.103,0.013-0.206,0.02-0.309
			c0.014-0.187,0.031-0.373,0.048-0.559c0.009-0.086,0.016-0.173,0.024-0.26c0.027-0.254,0.058-0.507,0.091-0.759
			c0.014-0.104,0.03-0.209,0.045-0.313c0.025-0.165,0.05-0.329,0.077-0.493c0.019-0.109,0.038-0.22,0.058-0.33
			c0.03-0.168,0.063-0.337,0.096-0.505c0.019-0.096,0.038-0.191,0.058-0.287c1.316-6.231,4.862-11.779,10.003-15.603
			c-0.196,0.992-0.116,2.184,0.495,3.167c0.022,0.035,0.046,0.07,0.07,0.106c-0.977,0.832-1.887,1.742-2.715,2.724
			c-0.52,0.616-0.442,1.536,0.174,2.056c0.274,0.231,0.608,0.344,0.94,0.344c0.414,0,0.827-0.177,1.115-0.518
			c0.927-1.099,1.97-2.098,3.104-2.976c0.341,0.063,0.717,0.1,1.135,0.101c0.027,0,0.054,0,0.081,0
			c6.285,0,9.449-2.242,11.039-4.433c0.08,0.003,0.159,0.006,0.239,0.006s0.159-0.002,0.238-0.006
			c1.59,2.191,4.752,4.433,11.04,4.433c0.026,0,0.054,0,0.081,0c2.221-0.006,3.304-1.001,3.821-1.835
			c0.61-0.982,0.691-2.171,0.498-3.162c5.912,4.425,9.767,11.219,10.459,18.641c0.003,0.03,0.005,0.062,0.008,0.092
			c0.012,0.126,0.022,0.254,0.031,0.38c0.01,0.133,0.02,0.268,0.027,0.4c0.005,0.092,0.01,0.184,0.014,0.276
			c0.009,0.154,0.015,0.311,0.02,0.466c0.002,0.062,0.003,0.122,0.005,0.183c0.005,0.203,0.008,0.407,0.008,0.611
			c0,0.23-0.003,0.461-0.01,0.691c-0.001,0.03-0.002,0.062-0.003,0.093c-0.006,0.2-0.014,0.4-0.023,0.602
			c-0.002,0.026-0.004,0.054-0.006,0.08c-0.012,0.204-0.023,0.407-0.04,0.61c-0.002,0.029-0.005,0.058-0.008,0.086
			c-0.017,0.2-0.034,0.399-0.055,0.599c-0.005,0.041-0.01,0.082-0.015,0.123c-0.021,0.184-0.041,0.367-0.065,0.551
			c-0.008,0.061-0.017,0.121-0.025,0.183c-0.022,0.159-0.045,0.319-0.07,0.479c-0.014,0.086-0.028,0.173-0.043,0.259
			c-0.021,0.13-0.044,0.259-0.066,0.389c-0.021,0.114-0.044,0.229-0.066,0.344c-0.02,0.096-0.038,0.192-0.058,0.288
			C279.209,276.196,268.633,285.167,256,285.167z M284.861,263.138c0.015-0.097,0.026-0.194,0.04-0.291
			c0.02-0.147,0.038-0.295,0.056-0.442c0.016-0.127,0.031-0.255,0.044-0.383c0.011-0.104,0.021-0.207,0.031-0.312
			c0.011-0.118,0.021-0.236,0.032-0.354c0.008-0.095,0.016-0.188,0.022-0.283c0.016-0.2,0.028-0.399,0.039-0.6
			c0.003-0.068,0.005-0.138,0.009-0.205c0.007-0.16,0.014-0.321,0.018-0.481c0.003-0.069,0.005-0.139,0.007-0.207
			c0.004-0.222,0.008-0.441,0.008-0.662c0-1.421-0.103-2.831-0.305-4.221c1.854,0.507,3.221,2.207,3.221,4.221
			C288.083,260.93,286.717,262.63,284.861,263.138z"/>
		<path fill="#000003" d="M250.812,260.604c-0.682-2.545-2.999-4.322-5.634-4.322c-2.636,0-4.952,1.777-5.635,4.322
			c-0.208,0.779,0.253,1.579,1.031,1.787c0.778,0.209,1.578-0.253,1.786-1.031c0.342-1.272,1.5-2.162,2.817-2.162
			c1.318,0,2.476,0.89,2.817,2.162c0.175,0.651,0.764,1.081,1.408,1.081c0.125,0,0.252-0.016,0.378-0.05
			C250.559,262.183,251.021,261.383,250.812,260.604z"/>
		<path fill="#000003" d="M266.823,256.281c-2.636,0-4.952,1.777-5.636,4.322c-0.208,0.779,0.254,1.579,1.031,1.787
			c0.778,0.209,1.578-0.253,1.787-1.031c0.341-1.272,1.499-2.162,2.817-2.162c1.316,0,2.476,0.89,2.816,2.162
			c0.175,0.651,0.764,1.081,1.407,1.081c0.126,0,0.253-0.016,0.379-0.05c0.778-0.208,1.24-1.008,1.031-1.787
			C271.775,258.059,269.458,256.281,266.823,256.281z"/>
		<path fill="#000003" d="M260.604,270.837c-0.778-0.208-1.578,0.253-1.786,1.031c-0.341,1.272-1.5,2.162-2.817,2.162
			c-1.318,0-2.476-0.89-2.817-2.162c-0.208-0.778-1.008-1.24-1.786-1.031c-0.778,0.208-1.24,1.008-1.031,1.787
			c0.682,2.545,2.999,4.322,5.635,4.322c2.635,0,4.952-1.777,5.634-4.322C261.843,271.845,261.382,271.045,260.604,270.837z"/>
	</g>
</g>
</svg>
