<?xml version="1.0" encoding="utf-8"?>
<!-- Generator: Adobe Illustrator 16.0.0, SVG Export Plug-In . SVG Version: 6.00 Build 0)  -->
<!DOCTYPE svg PUBLIC "-//W3C//DTD SVG 1.1//EN" "http://www.w3.org/Graphics/SVG/1.1/DTD/svg11.dtd">
<svg version="1.1" id="Layer_1" xmlns="http://www.w3.org/2000/svg" xmlns:xlink="http://www.w3.org/1999/xlink" x="0px" y="0px"
	 width="46px" height="46px" viewBox="233 233 46 46" enable-background="new 233 233 46 46" xml:space="preserve">
<g>
	<g>
		<g>
			<path fill="#FC88AF" d="M257.468,246.196c-1.552,0.116-2.982,0.679-4.162,1.56c0.302,0.226,0.591,0.475,0.865,0.749
				c3.107,3.107,3.107,8.164,0,11.271c-0.277,0.277-0.57,0.529-0.875,0.757c-1.241,0.926-2.692,1.443-4.168,1.552
				c-2.234,0.165-4.524-0.604-6.228-2.309l0,0c-3.107-3.107-3.107-8.164,0-11.271c1.708-1.708,4.003-2.477,6.241-2.308
				c1.146-1.286,2.564-2.323,4.164-3.02c-4.372-1.896-9.654-1.059-13.223,2.51c-4.661,4.661-4.661,12.245,0,16.907
				c1.823,1.822,4.094,2.933,6.461,3.33v1.755h-1.409c-1.101,0-1.993,0.893-1.993,1.993c0,1.1,0.892,1.992,1.993,1.992h1.409v1.537
				c0,1.101,0.892,1.993,1.992,1.993c1.101,0,1.993-0.893,1.993-1.993v-1.537h1.409c1.1,0,1.992-0.893,1.992-1.992
				c0-1.101-0.892-1.993-1.992-1.993h-1.409v-1.755c0.942-0.158,1.869-0.43,2.758-0.813c1.345-0.58,2.605-1.419,3.704-2.517
				c0.161-0.162,0.315-0.327,0.466-0.495C261.489,257.584,261.494,250.717,257.468,246.196z"/>
			<path fill="#7DBDFF" d="M273.418,236.806h-6.313c-1.101,0-1.993,0.893-1.993,1.994s0.893,1.994,1.993,1.994h1.5l-3.607,3.608
				c-1.956-1.395-4.348-2.215-6.928-2.215c-1.693,0-3.304,0.354-4.765,0.991c-1.6,0.697-3.018,1.734-4.164,3.02
				c-1.885,2.115-3.033,4.901-3.033,7.951c0,3.042,1.143,5.823,3.021,7.936c1.476-0.108,2.927-0.626,4.168-1.552
				c-1.942-1.456-3.202-3.775-3.202-6.384c0-2.613,1.264-4.937,3.212-6.393c1.179-0.881,2.609-1.444,4.162-1.56
				c0.199-0.015,0.399-0.022,0.602-0.022c4.397,0,7.975,3.578,7.975,7.975c0,4.397-3.577,7.975-7.975,7.975
				c-0.207,0-0.411-0.008-0.614-0.023c-0.15,0.168-0.306,0.333-0.467,0.494c-1.097,1.098-2.357,1.937-3.703,2.517
				c1.466,0.643,3.084,1,4.784,1c6.596,0,11.962-5.366,11.962-11.962c0-2.58-0.821-4.972-2.215-6.928l3.607-3.608v1.5
				c0,1.101,0.893,1.994,1.994,1.994c1.101,0,1.994-0.893,1.994-1.994V238.8C275.412,237.699,274.52,236.806,273.418,236.806z"/>
		</g>
		<g>
			<path d="M273.418,236.001h-6.313c-1.543,0-2.799,1.255-2.799,2.799c0,1.403,1.037,2.568,2.385,2.769l-1.794,1.794
				c-2.043-1.299-4.389-1.982-6.827-1.982c-1.649,0-3.251,0.311-4.768,0.925c-2.235-0.898-4.666-1.146-7.053-0.715
				c-2.563,0.464-4.893,1.683-6.736,3.527c-4.975,4.975-4.975,13.07,0,18.046c1.723,1.723,3.864,2.898,6.225,3.424v0.287h-0.603
				c-1.543,0-2.798,1.255-2.798,2.798s1.255,2.798,2.798,2.798h0.603v0.732c0,1.542,1.255,2.798,2.798,2.798
				c1.543,0,2.798-1.256,2.798-2.798v-0.732h0.603c1.542,0,2.798-1.255,2.798-2.798s-1.255-2.798-2.798-2.798h-0.603v-0.287
				c0.665-0.148,1.317-0.351,1.949-0.604c1.522,0.618,3.131,0.933,4.787,0.933c7.04,0,12.768-5.728,12.768-12.768
				c0-2.438-0.684-4.784-1.982-6.827l1.795-1.794c0.2,1.348,1.365,2.385,2.769,2.385c1.544,0,2.799-1.256,2.799-2.799V238.8
				C276.217,237.256,274.962,236.001,273.418,236.001z M250.395,265.13c-0.388,0.065-0.672,0.401-0.672,0.795v1.755
				c0,0.445,0.361,0.806,0.806,0.806h1.409c0.654,0,1.187,0.532,1.187,1.188c0,0.654-0.533,1.187-1.187,1.187h-1.409
				c-0.445,0-0.806,0.36-0.806,0.806v1.537c0,0.655-0.532,1.188-1.187,1.188c-0.654,0-1.187-0.532-1.187-1.188v-1.537
				c0-0.445-0.36-0.806-0.805-0.806h-1.409c-0.654,0-1.187-0.532-1.187-1.187c0-0.655,0.533-1.188,1.187-1.188h1.409
				c0.445,0,0.806-0.36,0.806-0.806v-1.755c0-0.394-0.285-0.729-0.672-0.795c-2.295-0.385-4.378-1.458-6.025-3.105
				c-4.347-4.347-4.347-11.42,0-15.768c2.831-2.83,6.855-3.895,10.639-2.921h0.002c-0.909,0.572-1.75,1.26-2.489,2.039v0
				c-2.418-0.074-4.759,0.848-6.474,2.562c-3.421,3.422-3.421,8.989,0,12.41c1.804,1.805,4.304,2.731,6.856,2.543
				c1.669-0.123,3.256-0.715,4.591-1.71c0.34-0.254,0.665-0.534,0.963-0.833c3.421-3.421,3.421-8.988,0-12.41
				c-0.029-0.029-0.059-0.059-0.089-0.087c0.77-0.419,1.609-0.692,2.481-0.807c3.499,4.228,3.405,10.399-0.278,14.522
				c-0.145,0.162-0.291,0.317-0.435,0.461c-1,1.001-2.162,1.791-3.453,2.348C252.145,264.727,251.279,264.981,250.395,265.13z
				 M247.455,247.063c-1.398,2.088-2.153,4.549-2.153,7.086c0,2.53,0.751,4.984,2.142,7.069c-1.493-0.229-2.888-0.925-3.974-2.011
				c-2.793-2.793-2.793-7.339,0-10.132C244.558,247.986,245.957,247.29,247.455,247.063z M253.305,248.796
				c0.102,0.091,0.201,0.183,0.297,0.279c2.793,2.793,2.793,7.339,0,10.132c-0.099,0.099-0.201,0.193-0.306,0.286
				c-1.53-1.361-2.396-3.277-2.396-5.345C250.9,252.076,251.769,250.158,253.305,248.796z M259.151,247.061
				c3.441,0.523,6.087,3.502,6.087,7.088c0,3.589-2.651,6.571-6.098,7.089c1.393-2.082,2.147-4.543,2.149-7.087
				C261.292,251.607,260.541,249.146,259.151,247.061z M274.606,245.113c0,0.655-0.533,1.188-1.188,1.188s-1.188-0.533-1.188-1.188
				v-1.5c0-0.326-0.196-0.62-0.497-0.744c-0.301-0.125-0.647-0.056-0.878,0.174l-3.607,3.608c-0.278,0.278-0.315,0.717-0.087,1.038
				c1.352,1.896,2.065,4.129,2.065,6.46c0,6.152-5.005,11.157-11.156,11.157c-0.942,0-1.866-0.116-2.764-0.347h-0.002
				c0.813-0.508,1.567-1.107,2.255-1.795c0.077-0.077,0.155-0.157,0.232-0.239l0,0c0.093,0.003,0.186,0.004,0.278,0.004
				c4.842,0,8.78-3.938,8.78-8.78c0-4.842-3.938-8.781-8.78-8.781c-0.219,0-0.441,0.009-0.661,0.025
				c-1.661,0.125-3.246,0.718-4.584,1.718c-2.214,1.654-3.535,4.285-3.535,7.038c0,2.368,0.979,4.647,2.662,6.291
				c-0.769,0.416-1.611,0.688-2.486,0.801c-1.648-1.996-2.552-4.499-2.552-7.092c0-2.735,1.005-5.368,2.829-7.415
				c1.072-1.203,2.416-2.177,3.884-2.817c1.406-0.613,2.901-0.924,4.443-0.924c2.33,0,4.564,0.714,6.46,2.066
				c0.32,0.228,0.759,0.192,1.037-0.086l3.608-3.608c0.23-0.23,0.299-0.577,0.175-0.878c-0.125-0.301-0.419-0.497-0.745-0.497h-1.5
				c-0.655,0-1.188-0.533-1.188-1.188s0.532-1.188,1.188-1.188h6.313c0.655,0,1.188,0.533,1.188,1.188V245.113L274.606,245.113z"/>
			<path d="M273.317,238.304c-0.212,0-0.42,0.086-0.569,0.236c-0.15,0.149-0.236,0.357-0.236,0.569c0,0.212,0.086,0.419,0.236,0.569
				c0.149,0.15,0.357,0.236,0.569,0.236s0.42-0.086,0.569-0.236c0.15-0.15,0.236-0.357,0.236-0.569c0-0.212-0.086-0.42-0.236-0.569
				C273.737,238.391,273.529,238.304,273.317,238.304z"/>
			<path d="M273.317,240.479c-0.445,0-0.806,0.36-0.806,0.805v0.861c0,0.445,0.36,0.806,0.806,0.806s0.806-0.36,0.806-0.806v-0.861
				C274.123,240.84,273.763,240.479,273.317,240.479z"/>
		</g>
	</g>
</g>
</svg>
